<?xml version="1.0" encoding="UTF-8"?><svg xmlns="http://www.w3.org/2000/svg" viewBox="0 0 34.43 44.22"><defs><style>.d{fill:#fff;}.e{fill:#0067a3;}</style></defs><g id="a"/><g id="b"><g id="c"><g><rect class="e" width="34.43" height="44.22"/><rect class="d" x="12.65" y="35.28" width="9.59" height="5.93"/><rect class="d" x="24.2" y="30.52" width="4.76" height="4.76"/><rect class="d" x="5.2" y="30.52" width="4.76" height="4.76"/><g><rect class="d" x="24.2" y="24.13" width="4.76" height="4.76"/><rect class="d" x="5.2" y="24.13" width="4.76" height="4.76"/><rect class="d" x="11.53" y="24.13" width="4.76" height="4.76"/><rect class="d" x="17.86" y="24.13" width="4.76" height="4.76"/></g><g><rect class="d" x="24.34" y="17.74" width="4.76" height="4.76"/><rect class="d" x="5.34" y="17.74" width="4.76" height="4.76"/><rect class="d" x="11.67" y="17.74" width="4.76" height="4.76"/><rect class="d" x="18" y="17.74" width="4.76" height="4.76"/></g><g><rect class="d" x="24.34" y="11.35" width="4.76" height="4.76"/><rect class="d" x="5.34" y="11.35" width="4.76" height="4.76"/><rect class="d" x="11.67" y="11.35" width="4.76" height="4.76"/><rect class="d" x="18" y="11.35" width="4.76" height="4.76"/></g><g><rect class="d" x="24.34" y="4.96" width="4.76" height="4.76"/><rect class="d" x="5.34" y="4.96" width="4.76" height="4.76"/><rect class="d" x="11.67" y="4.96" width="4.76" height="4.76"/><rect class="d" x="18" y="4.96" width="4.76" height="4.76"/></g></g></g></g></svg>